<svg xmlns="http://www.w3.org/2000/svg" viewBox="0 0 1000 450">
  <defs>
    <linearGradient id="ppGrad" x1="0%" y1="0%" x2="100%" y2="100%">
      <stop offset="0%" style="stop-color:#14532d;stop-opacity:1" />
      <stop offset="100%" style="stop-color:#22c55e;stop-opacity:1" />
    </linearGradient>
    <linearGradient id="secGrad" x1="0%" y1="0%" x2="100%" y2="100%">
      <stop offset="0%" style="stop-color:#78350f;stop-opacity:1" />
      <stop offset="100%" style="stop-color:#f59e0b;stop-opacity:1" />
    </linearGradient>
    <linearGradient id="pvGrad" x1="0%" y1="0%" x2="100%" y2="100%">
      <stop offset="0%" style="stop-color:#1e3a8a;stop-opacity:1" />
      <stop offset="100%" style="stop-color:#3b82f6;stop-opacity:1" />
    </linearGradient>
    <filter id="shadow" x="-20%" y="-20%" width="140%" height="140%">
      <feDropShadow dx="2" dy="2" stdDeviation="3" flood-opacity="0.3"/>
    </filter>
  </defs>
  
  <!-- Background -->
  <rect width="1000" height="450" fill="#0f172a"/>
  
  <!-- Title -->
  <text x="500" y="35" text-anchor="middle" fill="#f8fafc" font-family="Arial, sans-serif" font-size="20" font-weight="bold">Model Architecture Comparison</text>
  
  <!-- PointPillars -->
  <rect x="20" y="55" width="300" height="380" rx="15" fill="#052e16" filter="url(#shadow)" stroke="#22c55e" stroke-width="2"/>
  <rect x="20" y="55" width="300" height="45" rx="15" fill="url(#ppGrad)"/>
  <text x="170" y="85" text-anchor="middle" fill="#fff" font-family="Arial, sans-serif" font-size="16" font-weight="bold">⚡ PointPillars (Fast)</text>
  
  <rect x="45" y="115" width="250" height="40" rx="8" fill="#166534" stroke="#4ade80" stroke-width="1"/>
  <text x="170" y="140" text-anchor="middle" fill="#dcfce7" font-family="Arial, sans-serif" font-size="12">Point Cloud</text>
  
  <line x1="170" y1="155" x2="170" y2="175" stroke="#4ade80" stroke-width="2"/>
  <polygon points="170,180 165,170 175,170" fill="#4ade80"/>
  
  <rect x="45" y="185" width="250" height="40" rx="8" fill="#166534" stroke="#4ade80" stroke-width="1"/>
  <text x="170" y="210" text-anchor="middle" fill="#dcfce7" font-family="Arial, sans-serif" font-size="12">Pillar Feature Net</text>
  
  <line x1="170" y1="225" x2="170" y2="245" stroke="#4ade80" stroke-width="2"/>
  <polygon points="170,250 165,240 175,240" fill="#4ade80"/>
  
  <rect x="45" y="255" width="250" height="40" rx="8" fill="#166534" stroke="#4ade80" stroke-width="1"/>
  <text x="170" y="280" text-anchor="middle" fill="#dcfce7" font-family="Arial, sans-serif" font-size="12">Pseudo Image (BEV)</text>
  
  <line x1="170" y1="295" x2="170" y2="315" stroke="#4ade80" stroke-width="2"/>
  <polygon points="170,320 165,310 175,310" fill="#4ade80"/>
  
  <rect x="45" y="325" width="250" height="40" rx="8" fill="#166534" stroke="#4ade80" stroke-width="1"/>
  <text x="170" y="350" text-anchor="middle" fill="#dcfce7" font-family="Arial, sans-serif" font-size="12">2D CNN Backbone</text>
  
  <line x1="170" y1="365" x2="170" y2="385" stroke="#4ade80" stroke-width="2"/>
  <polygon points="170,390 165,380 175,380" fill="#4ade80"/>
  
  <rect x="70" y="395" width="200" height="30" rx="8" fill="#22c55e" stroke="#86efac" stroke-width="2"/>
  <text x="170" y="415" text-anchor="middle" fill="#052e16" font-family="Arial, sans-serif" font-size="11" font-weight="bold">SSD Detection Head</text>
  
  <!-- SECOND -->
  <rect x="350" y="55" width="300" height="380" rx="15" fill="#1c1917" filter="url(#shadow)" stroke="#f59e0b" stroke-width="2"/>
  <rect x="350" y="55" width="300" height="45" rx="15" fill="url(#secGrad)"/>
  <text x="500" y="85" text-anchor="middle" fill="#fff" font-family="Arial, sans-serif" font-size="16" font-weight="bold">⚖️ SECOND (Balanced)</text>
  
  <rect x="375" y="115" width="250" height="40" rx="8" fill="#78350f" stroke="#fbbf24" stroke-width="1"/>
  <text x="500" y="140" text-anchor="middle" fill="#fef3c7" font-family="Arial, sans-serif" font-size="12">Point Cloud</text>
  
  <line x1="500" y1="155" x2="500" y2="175" stroke="#fbbf24" stroke-width="2"/>
  <polygon points="500,180 495,170 505,170" fill="#fbbf24"/>
  
  <rect x="375" y="185" width="250" height="40" rx="8" fill="#78350f" stroke="#fbbf24" stroke-width="1"/>
  <text x="500" y="210" text-anchor="middle" fill="#fef3c7" font-family="Arial, sans-serif" font-size="12">Voxelization</text>
  
  <line x1="500" y1="225" x2="500" y2="245" stroke="#fbbf24" stroke-width="2"/>
  <polygon points="500,250 495,240 505,240" fill="#fbbf24"/>
  
  <rect x="375" y="255" width="250" height="40" rx="8" fill="#78350f" stroke="#fbbf24" stroke-width="1"/>
  <text x="500" y="280" text-anchor="middle" fill="#fef3c7" font-family="Arial, sans-serif" font-size="12">3D Sparse Convolution</text>
  
  <line x1="500" y1="295" x2="500" y2="315" stroke="#fbbf24" stroke-width="2"/>
  <polygon points="500,320 495,310 505,310" fill="#fbbf24"/>
  
  <rect x="375" y="325" width="250" height="40" rx="8" fill="#78350f" stroke="#fbbf24" stroke-width="1"/>
  <text x="500" y="350" text-anchor="middle" fill="#fef3c7" font-family="Arial, sans-serif" font-size="12">BEV Feature Map</text>
  
  <line x1="500" y1="365" x2="500" y2="385" stroke="#fbbf24" stroke-width="2"/>
  <polygon points="500,390 495,380 505,380" fill="#fbbf24"/>
  
  <rect x="400" y="395" width="200" height="30" rx="8" fill="#f59e0b" stroke="#fde047" stroke-width="2"/>
  <text x="500" y="415" text-anchor="middle" fill="#1c1917" font-family="Arial, sans-serif" font-size="11" font-weight="bold">RPN Detection Head</text>
  
  <!-- PV-RCNN -->
  <rect x="680" y="55" width="300" height="380" rx="15" fill="#0c1929" filter="url(#shadow)" stroke="#3b82f6" stroke-width="2"/>
  <rect x="680" y="55" width="300" height="45" rx="15" fill="url(#pvGrad)"/>
  <text x="830" y="85" text-anchor="middle" fill="#fff" font-family="Arial, sans-serif" font-size="16" font-weight="bold">🎯 PV-RCNN (Accurate)</text>
  
  <rect x="705" y="115" width="250" height="35" rx="8" fill="#1e3a8a" stroke="#60a5fa" stroke-width="1"/>
  <text x="830" y="138" text-anchor="middle" fill="#dbeafe" font-family="Arial, sans-serif" font-size="11">Point Cloud</text>
  
  <line x1="830" y1="150" x2="830" y2="165" stroke="#60a5fa" stroke-width="2"/>
  <polygon points="830,170 825,162 835,162" fill="#60a5fa"/>
  
  <rect x="705" y="175" width="250" height="35" rx="8" fill="#1e3a8a" stroke="#60a5fa" stroke-width="1"/>
  <text x="830" y="198" text-anchor="middle" fill="#dbeafe" font-family="Arial, sans-serif" font-size="11">Voxel + Point Features</text>
  
  <line x1="830" y1="210" x2="830" y2="225" stroke="#60a5fa" stroke-width="2"/>
  <polygon points="830,230 825,222 835,222" fill="#60a5fa"/>
  
  <rect x="705" y="235" width="250" height="35" rx="8" fill="#1e3a8a" stroke="#60a5fa" stroke-width="1"/>
  <text x="830" y="258" text-anchor="middle" fill="#dbeafe" font-family="Arial, sans-serif" font-size="11">3D Sparse Conv Backbone</text>
  
  <line x1="830" y1="270" x2="830" y2="285" stroke="#60a5fa" stroke-width="2"/>
  <polygon points="830,290 825,282 835,282" fill="#60a5fa"/>
  
  <rect x="705" y="295" width="250" height="35" rx="8" fill="#1e3a8a" stroke="#60a5fa" stroke-width="1"/>
  <text x="830" y="318" text-anchor="middle" fill="#dbeafe" font-family="Arial, sans-serif" font-size="11">Voxel Set Abstraction</text>
  
  <line x1="830" y1="330" x2="830" y2="345" stroke="#60a5fa" stroke-width="2"/>
  <polygon points="830,350 825,342 835,342" fill="#60a5fa"/>
  
  <rect x="705" y="355" width="250" height="35" rx="8" fill="#1e3a8a" stroke="#60a5fa" stroke-width="1"/>
  <text x="830" y="378" text-anchor="middle" fill="#dbeafe" font-family="Arial, sans-serif" font-size="11">RoI-Grid Pooling</text>
  
  <line x1="830" y1="390" x2="830" y2="400" stroke="#60a5fa" stroke-width="2"/>
  <polygon points="830,405 825,397 835,397" fill="#60a5fa"/>
  
  <rect x="730" y="410" width="200" height="25" rx="8" fill="#3b82f6" stroke="#93c5fd" stroke-width="2"/>
  <text x="830" y="427" text-anchor="middle" fill="#0c1929" font-family="Arial, sans-serif" font-size="10" font-weight="bold">RCNN Refinement Head</text>
</svg>
