<svg xmlns="http://www.w3.org/2000/svg" viewBox="0 0 900 400">
  <defs>
    <linearGradient id="cudaGrad" x1="0%" y1="0%" x2="100%" y2="100%">
      <stop offset="0%" style="stop-color:#1e3a5f;stop-opacity:1" />
      <stop offset="100%" style="stop-color:#3b82f6;stop-opacity:1" />
    </linearGradient>
    <linearGradient id="pytorchGrad" x1="0%" y1="0%" x2="100%" y2="100%">
      <stop offset="0%" style="stop-color:#7f1d1d;stop-opacity:1" />
      <stop offset="100%" style="stop-color:#ef4444;stop-opacity:1" />
    </linearGradient>
    <linearGradient id="spconvGrad" x1="0%" y1="0%" x2="100%" y2="100%">
      <stop offset="0%" style="stop-color:#14532d;stop-opacity:1" />
      <stop offset="100%" style="stop-color:#22c55e;stop-opacity:1" />
    </linearGradient>
    <filter id="shadow" x="-20%" y="-20%" width="140%" height="140%">
      <feDropShadow dx="2" dy="2" stdDeviation="3" flood-opacity="0.3"/>
    </filter>
  </defs>
  
  <!-- Background -->
  <rect width="900" height="400" fill="#0f172a"/>
  
  <!-- Title -->
  <text x="450" y="35" text-anchor="middle" fill="#f8fafc" font-family="Arial, sans-serif" font-size="20" font-weight="bold">Version Compatibility Matrix</text>
  
  <!-- CUDA Column -->
  <rect x="50" y="60" width="200" height="280" rx="15" fill="url(#cudaGrad)" filter="url(#shadow)" stroke="#3b82f6" stroke-width="2"/>
  <text x="150" y="95" text-anchor="middle" fill="#bfdbfe" font-family="Arial, sans-serif" font-size="16" font-weight="bold">🟦 CUDA</text>
  
  <rect x="75" y="115" width="150" height="45" rx="8" fill="#1e40af" stroke="#60a5fa" stroke-width="2"/>
  <text x="150" y="143" text-anchor="middle" fill="#fff" font-family="Arial, sans-serif" font-size="14" font-weight="bold">CUDA 10.2</text>
  
  <rect x="75" y="175" width="150" height="45" rx="8" fill="#1e40af" stroke="#60a5fa" stroke-width="2"/>
  <text x="150" y="203" text-anchor="middle" fill="#fff" font-family="Arial, sans-serif" font-size="14" font-weight="bold">CUDA 11.1</text>
  
  <rect x="75" y="235" width="150" height="45" rx="8" fill="#1e40af" stroke="#60a5fa" stroke-width="2"/>
  <text x="150" y="263" text-anchor="middle" fill="#fff" font-family="Arial, sans-serif" font-size="14" font-weight="bold">CUDA 11.3</text>
  
  <!-- PyTorch Column -->
  <rect x="350" y="60" width="200" height="280" rx="15" fill="url(#pytorchGrad)" filter="url(#shadow)" stroke="#ef4444" stroke-width="2"/>
  <text x="450" y="95" text-anchor="middle" fill="#fecaca" font-family="Arial, sans-serif" font-size="16" font-weight="bold">🔴 PyTorch</text>
  
  <rect x="375" y="115" width="150" height="45" rx="8" fill="#991b1b" stroke="#f87171" stroke-width="2"/>
  <text x="450" y="143" text-anchor="middle" fill="#fff" font-family="Arial, sans-serif" font-size="14" font-weight="bold">PyTorch 1.6</text>
  
  <rect x="375" y="175" width="150" height="45" rx="8" fill="#991b1b" stroke="#f87171" stroke-width="2"/>
  <text x="450" y="203" text-anchor="middle" fill="#fff" font-family="Arial, sans-serif" font-size="14" font-weight="bold">PyTorch 1.8</text>
  
  <rect x="375" y="235" width="150" height="45" rx="8" fill="#991b1b" stroke="#f87171" stroke-width="2"/>
  <text x="450" y="263" text-anchor="middle" fill="#fff" font-family="Arial, sans-serif" font-size="14" font-weight="bold">PyTorch 1.10</text>
  
  <!-- spconv Column -->
  <rect x="650" y="60" width="200" height="280" rx="15" fill="url(#spconvGrad)" filter="url(#shadow)" stroke="#22c55e" stroke-width="2"/>
  <text x="750" y="95" text-anchor="middle" fill="#bbf7d0" font-family="Arial, sans-serif" font-size="16" font-weight="bold">🟢 spconv</text>
  
  <rect x="675" y="115" width="150" height="45" rx="8" fill="#166534" stroke="#4ade80" stroke-width="2"/>
  <text x="750" y="143" text-anchor="middle" fill="#fff" font-family="Arial, sans-serif" font-size="14" font-weight="bold">spconv 1.2.1</text>
  
  <rect x="675" y="175" width="150" height="45" rx="8" fill="#166534" stroke="#4ade80" stroke-width="2"/>
  <text x="750" y="203" text-anchor="middle" fill="#fff" font-family="Arial, sans-serif" font-size="14" font-weight="bold">spconv 2.1</text>
  
  <rect x="675" y="235" width="150" height="45" rx="8" fill="#166534" stroke="#4ade80" stroke-width="2"/>
  <text x="750" y="263" text-anchor="middle" fill="#fff" font-family="Arial, sans-serif" font-size="14" font-weight="bold">spconv 2.3</text>
  
  <!-- Connection Lines - CUDA to PyTorch -->
  <line x1="225" y1="137" x2="375" y2="137" stroke="#60a5fa" stroke-width="2" stroke-dasharray="5,3"/>
  <line x1="225" y1="137" x2="375" y2="197" stroke="#60a5fa" stroke-width="2" stroke-dasharray="5,3"/>
  <line x1="225" y1="197" x2="375" y2="197" stroke="#60a5fa" stroke-width="2" stroke-dasharray="5,3"/>
  <line x1="225" y1="197" x2="375" y2="257" stroke="#60a5fa" stroke-width="2" stroke-dasharray="5,3"/>
  <line x1="225" y1="257" x2="375" y2="257" stroke="#60a5fa" stroke-width="2" stroke-dasharray="5,3"/>
  
  <!-- Connection Lines - PyTorch to spconv -->
  <line x1="525" y1="137" x2="675" y2="137" stroke="#f87171" stroke-width="2" stroke-dasharray="5,3"/>
  <line x1="525" y1="197" x2="675" y2="197" stroke="#f87171" stroke-width="2" stroke-dasharray="5,3"/>
  <line x1="525" y1="257" x2="675" y2="257" stroke="#f87171" stroke-width="2" stroke-dasharray="5,3"/>
  
  <!-- Arrows -->
  <polygon points="370,137 375,132 375,142" fill="#60a5fa"/>
  <polygon points="370,197 375,192 375,202" fill="#60a5fa"/>
  <polygon points="370,257 375,252 375,262" fill="#60a5fa"/>
  
  <polygon points="670,137 675,132 675,142" fill="#f87171"/>
  <polygon points="670,197 675,192 675,202" fill="#f87171"/>
  <polygon points="670,257 675,252 675,262" fill="#f87171"/>
  
  <!-- Legend -->
  <rect x="250" y="355" width="400" height="35" rx="8" fill="#1e293b" stroke="#334155" stroke-width="1"/>
  <text x="450" y="378" text-anchor="middle" fill="#94a3b8" font-family="Arial, sans-serif" font-size="12">⚠️ Always match versions: CUDA → PyTorch → spconv</text>
</svg>
